<?xml version="1.0" standalone="no"?>
<!DOCTYPE svg PUBLIC "-//W3C//DTD SVG 20010904//EN"
 "http://www.w3.org/TR/2001/REC-SVG-20010904/DTD/svg10.dtd">
<svg version="1.0" xmlns="http://www.w3.org/2000/svg"
 width="800.000000pt" height="800.000000pt" viewBox="0 0 800.000000 800.000000"
 preserveAspectRatio="xMidYMid meet">
<metadata>
Created by potrace 1.11, written by Peter Selinger 2001-2013
</metadata>
<g transform="translate(0.000000,800.000000) scale(0.100000,-0.100000)"
fill="#000000" stroke="none">
<path d="M0 4000 l0 -4000 4000 0 4000 0 0 4000 0 4000 -4000 0 -4000 0 0
-4000z m4405 3316 c614 -75 1058 -258 1398 -576 206 -192 382 -469 480 -755
43 -126 111 -394 103 -403 -6 -5 -1300 -150 -1353 -152 -7 0 -15 17 -18 38
-88 514 -454 784 -1065 784 -302 -1 -541 -66 -725 -197 -307 -219 -377 -633
-155 -920 99 -128 254 -215 530 -298 115 -35 271 -72 705 -167 1002 -221 1378
-379 1720 -724 325 -329 466 -703 466 -1243 1 -1184 -757 -1885 -2146 -1983
-576 -41 -1173 35 -1635 207 -293 109 -598 308 -765 499 -254 291 -381 550
-463 944 -32 154 -66 360 -60 365 2 3 1328 135 1351 135 2 0 7 -33 11 -72 18
-201 75 -381 156 -496 108 -153 225 -255 385 -335 189 -94 367 -135 625 -144
438 -15 754 82 970 297 133 132 196 273 207 465 16 271 -91 473 -327 620 -235
145 -387 193 -1430 445 -392 95 -660 185 -848 285 -505 269 -812 697 -897
1253 -21 132 -21 416 0 557 107 736 608 1257 1423 1481 195 53 372 81 682 108
97 8 561 -4 675 -18z"/>
</g>
</svg>
