<?xml version="1.0" standalone="no"?>
<!DOCTYPE svg PUBLIC "-//W3C//DTD SVG 20010904//EN"
 "http://www.w3.org/TR/2001/REC-SVG-20010904/DTD/svg10.dtd">
<svg version="1.0" xmlns="http://www.w3.org/2000/svg"
 width="610.000000pt" height="610.000000pt" viewBox="0 0 610.000000 610.000000"
 preserveAspectRatio="xMidYMid meet">
<metadata>
Created by potrace 1.11, written by Peter Selinger 2001-2013
</metadata>
<g transform="translate(0.000000,610.000000) scale(0.100000,-0.100000)"
fill="#000000" stroke="none">
<path d="M1174 5491 l-227 -280 -88 80 c-59 52 -97 79 -113 79 -32 0 -176
-159 -176 -195 0 -19 43 -63 191 -197 111 -101 200 -174 214 -176 27 -4 25 -6
404 463 138 171 251 317 251 326 0 18 -29 47 -125 123 -38 31 -78 56 -87 56
-10 0 -108 -112 -244 -279z"/>
<path d="M2022 5400 c-68 -35 -115 -82 -146 -149 -16 -36 -21 -66 -21 -136 0
-78 4 -97 27 -141 32 -60 93 -118 157 -148 l46 -21 1625 0 1625 0 53 24 c69
31 145 114 167 182 23 69 17 188 -13 246 -35 67 -82 114 -147 145 l-60 28
-1626 0 -1626 0 -61 -30z"/>
<path d="M751 4075 c-65 -66 -72 -78 -67 -103 4 -15 49 -69 106 -127 l100 -99
-105 -107 c-71 -71 -105 -113 -105 -129 0 -14 26 -49 72 -96 100 -103 104
-103 235 28 l103 103 103 -103 c91 -91 106 -102 138 -102 31 0 44 9 102 69 93
96 93 100 -38 231 l-105 105 105 105 c132 132 133 136 37 232 -98 98 -106 97
-239 -34 l-103 -102 -103 102 c-131 131 -135 131 -236 27z"/>
<path d="M2081 3994 c-69 -18 -112 -45 -156 -96 -107 -126 -99 -316 19 -434
98 -97 -69 -89 1776 -89 l1615 0 46 21 c64 30 125 88 157 148 24 45 27 62 27
146 0 84 -3 101 -27 146 -32 60 -93 118 -157 148 l-46 21 -1600 2 c-1379 2
-1607 0 -1654 -13z"/>
<path d="M751 2585 c-65 -66 -72 -78 -67 -103 4 -15 49 -69 106 -127 l100 -99
-105 -107 c-71 -71 -105 -113 -105 -129 0 -14 26 -49 72 -96 100 -103 104
-103 235 28 l103 103 103 -103 c132 -131 140 -132 239 -34 95 96 95 100 -37
232 l-105 105 105 105 c131 131 132 134 38 231 -58 60 -71 69 -102 69 -32 0
-47 -11 -138 -102 l-103 -103 -103 103 c-131 131 -135 131 -236 27z"/>
<path d="M2043 2549 c-64 -25 -131 -88 -163 -154 -21 -42 -25 -65 -25 -140 0
-78 4 -97 27 -140 32 -60 87 -114 148 -146 l45 -24 1635 0 1635 0 50 25 c69
34 129 99 155 168 18 46 21 72 18 137 -6 124 -60 208 -171 267 l-42 23 -1630
2 c-1612 2 -1631 2 -1682 -18z"/>
<path d="M825 1231 c-11 -5 -49 -39 -84 -75 -85 -89 -83 -98 49 -231 l100 -99
-106 -108 c-127 -128 -127 -128 -26 -230 93 -95 98 -94 228 34 l104 102 104
-102 c131 -129 134 -130 234 -29 99 100 99 102 -30 234 l-102 103 102 103
c129 130 130 133 29 234 -49 49 -81 73 -97 73 -16 0 -56 -32 -129 -105 l-107
-105 -99 100 c-99 98 -131 117 -170 101z"/>
<path d="M2022 1110 c-68 -35 -115 -82 -146 -149 -16 -36 -21 -66 -21 -136 0
-78 4 -97 27 -141 32 -60 93 -118 157 -148 l46 -21 1625 0 1625 0 53 24 c69
31 145 114 167 182 23 69 17 188 -13 246 -35 67 -82 114 -147 145 l-60 28
-1626 0 -1626 0 -61 -30z"/>
</g>
</svg>
